<?xml version="1.0" encoding="UTF-8"?>
<svg width="1277px" height="693px" viewBox="0 0 1277 693" version="1.1" xmlns="http://www.w3.org/2000/svg" xmlns:xlink="http://www.w3.org/1999/xlink">
    <!-- Generator: Sketch 53.2 (72643) - https://sketchapp.com -->
    <title>Group 2</title>
    <desc>Created with Sketch.</desc>
    <g id="Page-1" stroke="none" stroke-width="1" fill="none" fill-rule="evenodd">
        <g id="Group-2" transform="translate(-0.000000, 0.000000)">
            <rect id="Rectangle" stroke="#22262A" fill="#22262A" x="0.5" y="0.5" width="1276" height="692"></rect>
            <g id="Group" transform="translate(50.000000, 50.000000)">
                <g id="MarvelLogo" fill-rule="nonzero">
                    <rect id="Rectangle" fill="#ED1D24" x="0" y="0" width="1176" height="473"></rect>
                    <path d="M994.44737,109.55719 L994.44737,37.0541393 L792.960416,37.0541393 L759.824539,279.271974 L727.035408,37.0553162 L654.375323,37.0553162 L662.515011,101.68699 C654.122611,85.1297946 624.374256,37.0553162 558.907657,37.0553162 C558.476282,37.0270696 486.148838,37.0553162 486.148838,37.0553162 L485.870266,390.106791 L432.909989,37.0553162 L337.750279,37 L282.962245,402.809507 L282.990455,37.0529623 L191.916457,37.0529623 L159.083835,242.529076 L127.103384,37.0553162 L36,37.0553162 L36,434.750489 L107.742093,434.750489 L107.742093,243.06223 L140.37607,434.745781 L178.516826,434.745781 L210.692395,243.06223 L210.692395,434.745781 L348.998916,434.745781 L357.391316,373.550773 L413.07501,373.550773 L421.4392,434.745781 L557.223299,434.829344 L557.333788,434.829344 L557.333788,434.745781 L557.418417,434.745781 L557.503046,434.745781 L557.503046,305.653089 L574.149149,303.225062 L608.610883,434.829344 L608.695512,434.829344 L678.761476,434.829344 L678.843754,434.829344 L678.815544,434.745781 L678.940137,434.745781 L679.024767,434.745781 L633.801013,280.499522 C656.719083,263.52569 682.595651,220.420253 675.708946,179.183798 L675.708946,179.156728 C675.791224,179.714598 718.394997,435 718.394997,435 L801.925239,434.745781 L859.001788,74.267813 L859.001788,434.746958 L994.450897,434.746958 L994.450897,363.220768 L930.156178,363.220768 L930.156178,272.012606 L994.450897,272.012606 L994.450897,199.397747 L930.156178,199.397747 L930.156178,109.55719 L994.44737,109.55719 Z M365.842487,310.485606 L385.539944,140.463641 L405.992012,310.485606 L365.842487,310.485606 Z M574.381879,231.978984 C568.860996,234.660054 563.103857,236.000588 557.49952,236.000588 L557.49952,108.077776 C557.597079,108.077776 557.709918,108.051883 557.848616,108.051883 C563.467057,108.023636 605.357359,109.753739 605.357359,171.340668 C605.357359,203.557054 591.11026,223.855742 574.381879,231.978984 L574.381879,231.978984 Z M1139,363.165452 L1139,434.690465 L1006.86789,434.690465 L1006.86789,37 L1078.01052,37 L1078.01052,363.165452 L1139,363.165452 Z" id="Shape" fill="#FFFFFF"></path>
                </g>
                <text id="Movie-&amp;-Comic-review" font-family="Bebas-Regular, Bebas" font-size="100" font-weight="normal" letter-spacing="20" fill="#FFFFFF">
                    <tspan x="0" y="573">Movie &amp; Comic review</tspan>
                </text>
            </g>
        </g>
    </g>
</svg>